REM DIRINDEX 1\2\4,1\2\5,1\2\6,1\3\7,1\3\8,1\3\9,1\3\10
REM DIRNAME folder01,folder02,folder03,folder04,folder05,folder06,folder07,folder08,folder09,folder10
TITLE ""
FILE "b_43.mp3" MP3
  TRACK 01 AUDIO
    TITLE "0:"
    INDEX 01 00:00:00
  TRACK 02 AUDIO
    TITLE "10:cjc058_3769"
    INDEX 01 00:00:09
  TRACK 03 AUDIO
    TITLE "0:"
    INDEX 01 00:02:59
  TRACK 04 AUDIO
    TITLE "7:cjc058_3770"
    INDEX 01 00:03:31
  TRACK 05 AUDIO
    TITLE "0:"
    INDEX 01 00:04:62
  TRACK 06 AUDIO
    TITLE "8:cjc058_3771"
    INDEX 01 00:05:20
  TRACK 07 AUDIO
    TITLE "0:"
    INDEX 01 00:07:66
  TRACK 08 AUDIO
    TITLE "9:cjc058_3772"
    INDEX 01 00:08:30
  TRACK 09 AUDIO
    TITLE "0:"
    INDEX 01 00:12:30
  TRACK 10 AUDIO
    TITLE "7:cjc058_3773"
    INDEX 01 00:13:37
  TRACK 11 AUDIO
    TITLE "0:"
    INDEX 01 00:15:46
  TRACK 12 AUDIO
    TITLE "8:cjc058_3774"
    INDEX 01 00:16:04
  TRACK 13 AUDIO
    TITLE "0:"
    INDEX 01 00:19:20
  TRACK 14 AUDIO
    TITLE "9:cjc058_3775"
    INDEX 01 00:19:65
  TRACK 15 AUDIO
    TITLE "0:"
    INDEX 01 00:23:34
  TRACK 16 AUDIO
    TITLE "7:cjc058_3776"
    INDEX 01 00:24:39
  TRACK 17 AUDIO
    TITLE "0:"
    INDEX 01 00:26:42
  TRACK 18 AUDIO
    TITLE "8:cjc058_3777"
    INDEX 01 00:26:71
  TRACK 19 AUDIO
    TITLE "0:"
    INDEX 01 00:29:21
  TRACK 20 AUDIO
    TITLE "9:cjc058_3778"
    INDEX 01 00:29:64
  TRACK 21 AUDIO
    TITLE "0:"
    INDEX 01 00:32:37
  TRACK 22 AUDIO
    TITLE "7:cjc058_3779"
    INDEX 01 00:33:46
  TRACK 23 AUDIO
    TITLE "0:"
    INDEX 01 00:35:00
  TRACK 24 AUDIO
    TITLE "8:cjc058_3780"
    INDEX 01 00:35:33
  TRACK 25 AUDIO
    TITLE "0:"
    INDEX 01 00:36:60
  TRACK 26 AUDIO
    TITLE "9:cjc058_3781"
    INDEX 01 00:37:26
  TRACK 27 AUDIO
    TITLE "0:"
    INDEX 01 00:42:37
  TRACK 28 AUDIO
    TITLE "7:cjc058_3782"
    INDEX 01 00:43:46
  TRACK 29 AUDIO
    TITLE "0:"
    INDEX 01 00:45:04
  TRACK 30 AUDIO
    TITLE "8:cjc058_3783"
    INDEX 01 00:45:37
  TRACK 31 AUDIO
    TITLE "0:"
    INDEX 01 00:48:24
  TRACK 32 AUDIO
    TITLE "9:cjc058_3784"
    INDEX 01 00:48:69
  TRACK 33 AUDIO
    TITLE "0:"
    INDEX 01 00:53:33
  TRACK 34 AUDIO
    TITLE "7:cjc058_3785"
    INDEX 01 00:54:40
  TRACK 35 AUDIO
    TITLE "0:"
    INDEX 01 00:56:65
  TRACK 36 AUDIO
    TITLE "8:cjc058_3786"
    INDEX 01 00:57:25
  TRACK 37 AUDIO
    TITLE "0:"
    INDEX 01 00:59:34
  TRACK 38 AUDIO
    TITLE "9:cjc058_3787"
    INDEX 01 01:00:06
  TRACK 39 AUDIO
    TITLE "0:"
    INDEX 01 01:03:10
  TRACK 40 AUDIO
    TITLE "7:cjc058_3788"
    INDEX 01 01:04:19
  TRACK 41 AUDIO
    TITLE "0:"
    INDEX 01 01:05:56
  TRACK 42 AUDIO
    TITLE "8:cjc058_3789"
    INDEX 01 01:06:12
  TRACK 43 AUDIO
    TITLE "0:"
    INDEX 01 01:07:45
  TRACK 44 AUDIO
    TITLE "9:cjc058_3790"
    INDEX 01 01:08:17
  TRACK 45 AUDIO
    TITLE "0:"
    INDEX 01 01:13:06
  TRACK 46 AUDIO
    TITLE "7:cjc058_3791"
    INDEX 01 01:14:14
  TRACK 47 AUDIO
    TITLE "0:"
    INDEX 01 01:16:32
  TRACK 48 AUDIO
    TITLE "8:cjc058_3792"
    INDEX 01 01:16:63
  TRACK 49 AUDIO
    TITLE "0:"
    INDEX 01 01:19:03
  TRACK 50 AUDIO
    TITLE "9:cjc058_3793"
    INDEX 01 01:19:44
  TRACK 51 AUDIO
    TITLE "0:"
    INDEX 01 01:22:72
  TRACK 52 AUDIO
    TITLE "7:cjc058_3794"
    INDEX 01 01:24:06
  TRACK 53 AUDIO
    TITLE "0:"
    INDEX 01 01:25:55
  TRACK 54 AUDIO
    TITLE "8:cjc058_3795"
    INDEX 01 01:26:11
  TRACK 55 AUDIO
    TITLE "0:"
    INDEX 01 01:28:72
  TRACK 56 AUDIO
    TITLE "9:cjc058_3796"
    INDEX 01 01:29:43
  TRACK 57 AUDIO
    TITLE "0:"
    INDEX 01 01:33:34
  TRACK 58 AUDIO
    TITLE "7:cjc058_3797"
    INDEX 01 01:34:44
  TRACK 59 AUDIO
    TITLE "0:"
    INDEX 01 01:36:60
  TRACK 60 AUDIO
    TITLE "8:cjc058_3798"
    INDEX 01 01:37:19
  TRACK 61 AUDIO
    TITLE "0:"
    INDEX 01 01:39:45
  TRACK 62 AUDIO
    TITLE "9:cjc058_3799"
    INDEX 01 01:40:17
  TRACK 63 AUDIO
    TITLE "0:"
    INDEX 01 01:43:74
  TRACK 64 AUDIO
    TITLE "7:cjc058_3800"
    INDEX 01 01:45:02
  TRACK 65 AUDIO
    TITLE "0:"
    INDEX 01 01:46:47
  TRACK 66 AUDIO
    TITLE "8:cjc058_3801"
    INDEX 01 01:47:05
  TRACK 67 AUDIO
    TITLE "0:"
    INDEX 01 01:50:00
  TRACK 68 AUDIO
    TITLE "9:cjc058_3802"
    INDEX 01 01:50:45
  TRACK 69 AUDIO
    TITLE "0:"
    INDEX 01 01:53:63
  TRACK 70 AUDIO
    TITLE "7:cjc058_3803"
    INDEX 01 01:54:72
  TRACK 71 AUDIO
    TITLE "0:"
    INDEX 01 01:56:67
  TRACK 72 AUDIO
    TITLE "8:cjc058_3804"
    INDEX 01 01:57:27
  TRACK 73 AUDIO
    TITLE "0:"
    INDEX 01 01:59:44
  TRACK 74 AUDIO
    TITLE "9:cjc058_3805"
    INDEX 01 02:00:14
  TRACK 75 AUDIO
    TITLE "0:"
    INDEX 01 02:03:20
  TRACK 76 AUDIO
    TITLE "7:cjc058_3806"
    INDEX 01 02:04:27
  TRACK 77 AUDIO
    TITLE "0:"
    INDEX 01 02:06:52
  TRACK 78 AUDIO
    TITLE "8:cjc058_3807"
    INDEX 01 02:07:08
  TRACK 79 AUDIO
    TITLE "0:"
    INDEX 01 02:08:68
  TRACK 80 AUDIO
    TITLE "9:cjc058_3808"
    INDEX 01 02:09:36
  TRACK 81 AUDIO
    TITLE "0:"
    INDEX 01 02:12:48
  TRACK 82 AUDIO
    TITLE "7:cjc058_3809"
    INDEX 01 02:13:57
  TRACK 83 AUDIO
    TITLE "0:"
    INDEX 01 02:16:21
  TRACK 84 AUDIO
    TITLE "8:cjc058_3810"
    INDEX 01 02:16:54
  TRACK 85 AUDIO
    TITLE "0:"
    INDEX 01 02:18:10
  TRACK 86 AUDIO
    TITLE "9:cjc058_3811"
    INDEX 01 02:18:57
  TRACK 87 AUDIO
    TITLE "0:"
    INDEX 01 02:21:67
  TRACK 88 AUDIO
    TITLE "7:cjc058_3812"
    INDEX 01 02:23:01
  TRACK 89 AUDIO
    TITLE "0:"
    INDEX 01 02:25:43
  TRACK 90 AUDIO
    TITLE "8:cjc058_3813"
    INDEX 01 02:26:01
  TRACK 91 AUDIO
    TITLE "0:"
    INDEX 01 02:28:16
  TRACK 92 AUDIO
    TITLE "9:cjc058_3814"
    INDEX 01 02:28:59
  TRACK 93 AUDIO
    TITLE "0:"
    INDEX 01 02:32:59
  TRACK 94 AUDIO
    TITLE "7:cjc058_3815"
    INDEX 01 02:33:66
  TRACK 95 AUDIO
    TITLE "0:"
    INDEX 01 02:36:37
  TRACK 96 AUDIO
    TITLE "8:cjc058_3816"
    INDEX 01 02:36:66
  TRACK 97 AUDIO
    TITLE "0:"
    INDEX 01 02:39:08
  TRACK 98 AUDIO
    TITLE "9:cjc058_3817"
    INDEX 01 02:39:55
  TRACK 99 AUDIO
    TITLE "0:"
    INDEX 01 02:43:51
  TRACK 100 AUDIO
    TITLE "7:cjc058_3818"
    INDEX 01 02:44:60
  TRACK 101 AUDIO
    TITLE "0:"
    INDEX 01 02:47:49
  TRACK 102 AUDIO
    TITLE "8:cjc058_3819"
    INDEX 01 02:48:07
  TRACK 103 AUDIO
    TITLE "0:"
    INDEX 01 02:49:26
  TRACK 104 AUDIO
    TITLE "9:cjc058_3820"
    INDEX 01 02:49:71
  TRACK 105 AUDIO
    TITLE "0:"
    INDEX 01 02:54:51
